<?xml version="1.0" standalone="no"?><!DOCTYPE svg PUBLIC "-//W3C//DTD SVG 1.1//EN" "http://www.w3.org/Graphics/SVG/1.1/DTD/svg11.dtd"><svg t="1710753302889" class="icon" viewBox="0 0 1024 1024" version="1.1" xmlns="http://www.w3.org/2000/svg" p-id="6674" xmlns:xlink="http://www.w3.org/1999/xlink" width="32" height="32"><path d="M793.6 450.56H460.8c-10.24 0-25.6 15.36-25.6 25.6v66.56c0 15.36 15.36 25.6 25.6 25.6h209.92c15.36 0 25.6 15.36 25.6 25.6v20.48c0 46.08-40.96 81.92-81.92 81.92H348.16c-15.36 0-25.6-15.36-25.6-25.6V399.36C317.44 358.4 358.4 317.44 399.36 317.44h389.12c10.24 0 25.6-15.36 25.6-25.6V230.4c5.12-10.24-10.24-25.6-20.48-25.6H409.6C296.96 204.8 204.8 296.96 204.8 409.6v384c0 10.24 15.36 25.6 25.6 25.6h404.48c102.4 0 184.32-81.92 184.32-184.32V476.16c0-10.24-15.36-25.6-25.6-25.6z" p-id="6675"></path></svg>