<?xml version="1.0" standalone="no"?><!DOCTYPE svg PUBLIC "-//W3C//DTD SVG 1.1//EN" "http://www.w3.org/Graphics/SVG/1.1/DTD/svg11.dtd"><svg t="1710824684419" class="icon" viewBox="0 0 1024 1024" version="1.1" xmlns="http://www.w3.org/2000/svg" p-id="5119" xmlns:xlink="http://www.w3.org/1999/xlink" width="32" height="32"><path d="M346.752 141.397333l170.666667 426.666667a21.333333 21.333333 0 0 1-19.797334 29.269333h-46.037333a21.333333 21.333333 0 0 1-19.797333-13.397333L385.92 469.333333h-174.506667l-45.781333 114.602667a21.333333 21.333333 0 0 1-19.84 13.397333H99.882667a21.333333 21.333333 0 0 1-19.84-29.269333l170.666666-426.666667A21.333333 21.333333 0 0 1 270.506667 128h56.448a21.333333 21.333333 0 0 1 19.797333 13.397333zM725.333333 128a170.666667 170.666667 0 0 1 170.666667 170.666667v64a21.333333 21.333333 0 0 1-21.333333 21.333333h-42.666667a21.333333 21.333333 0 0 1-21.333333-21.333333V298.666667a85.333333 85.333333 0 0 0-85.333334-85.333334h-106.666666a21.333333 21.333333 0 0 1-21.333334-21.333333v-42.666667a21.333333 21.333333 0 0 1 21.333334-21.333333H725.333333zM298.709333 251.093333L245.504 384h106.325333L298.709333 251.093333zM512 768v-129.408q23.808-4.864 38.613333-26.709333 19.029333-28.16 6.4-59.648l-15.274666-38.229334A42.666667 42.666667 0 0 1 554.666667 512h128v-64a21.333333 21.333333 0 0 1 21.333333-21.333333h42.666667a21.333333 21.333333 0 0 1 21.333333 21.333333V512h128a42.666667 42.666667 0 0 1 42.666667 42.666667v213.333333a42.666667 42.666667 0 0 1-42.666667 42.666667h-128v106.666666a21.333333 21.333333 0 0 1-21.333333 21.333334h-42.666667a21.333333 21.333333 0 0 1-21.333333-21.333334V810.666667h-128a42.666667 42.666667 0 0 1-42.666667-42.666667z m170.666667-170.666667h-85.333334v128h85.333334v-128zM213.333333 661.333333V725.333333a85.333333 85.333333 0 0 0 78.933334 85.12L298.666667 810.666667h106.666666a21.333333 21.333333 0 0 1 21.333334 21.333333v42.666667a21.333333 21.333333 0 0 1-21.333334 21.333333H298.666667a170.666667 170.666667 0 0 1-170.666667-170.666667v-64a21.333333 21.333333 0 0 1 21.333333-21.333333h42.666667a21.333333 21.333333 0 0 1 21.333333 21.333333zM853.333333 597.333333h-85.333333v128h85.333333v-128z" fill="#4E5969" p-id="5120"></path></svg>