<svg t="1710825978069" class="icon" viewBox="0 0 1024 1024" version="1.1" xmlns="http://www.w3.org/2000/svg" p-id="6251" width="32" height="32"><path d="M616.448 692.906667a933.674667 933.674667 0 0 1-74.538667 92.8c71.381333 69.248 137.728 101.674667 174.549334 80.384 36.821333-21.248 41.898667-94.933333 17.621333-191.317334-36.394667 8.106667-75.904 14.250667-117.632 18.090667z m-55.893333 3.712a1172.48 1172.48 0 0 1-97.066667 0c16.042667 20.992 32.341333 40.448 48.512 58.154666 16.213333-17.706667 32.469333-37.162667 48.554667-58.197333z m215.04-336.810667c113.706667 32.597333 187.989333 86.784 187.989333 152.192 0 65.408-74.24 119.594667-187.946667 152.192 28.586667 114.773333 18.773333 206.165333-37.845333 238.848-56.618667 32.725333-140.672-4.48-225.792-86.656-85.077333 82.133333-169.130667 119.381333-225.749333 86.656-56.661333-32.682667-66.432-124.074667-37.845334-238.848-113.706667-32.597333-187.946667-86.784-187.946666-152.192 0-65.408 74.24-119.594667 187.946666-152.192-28.586667-114.773333-18.773333-206.165333 37.845334-238.890667 56.618667-32.682667 140.672 4.522667 225.749333 86.698667 85.12-82.176 169.173333-119.381333 225.792-86.698667 56.618667 32.725333 66.432 124.117333 37.845333 238.890667z m-41.514667-10.581333c24.32-96.426667 19.2-170.069333-17.621333-191.36-36.821333-21.248-103.168 11.178667-174.506667 80.426666 25.216 27.434667 50.304 58.581333 74.496 92.8 41.728 3.84 81.237333 9.984 117.632 18.133334z m-444.16 325.546666c-24.277333 96.426667-19.2 170.069333 17.664 191.317334 36.821333 21.248 103.168-11.136 174.506667-80.384a932.949333 932.949333 0 0 1-74.496-92.842667 933.674667 933.674667 0 0 1-117.632-18.133333z m173.568-347.392a1173.632 1173.632 0 0 1 97.066667 0A876.245333 876.245333 0 0 0 512 269.226667c-16.213333 17.749333-32.426667 37.205333-48.512 58.197333z m-55.893333 3.712a932.906667 932.906667 0 0 1 74.496-92.8C410.752 169.045333 344.405333 136.618667 307.626667 157.866667c-36.821333 21.290667-41.941333 94.976-17.621334 191.36 36.394667-8.106667 75.904-14.250667 117.632-18.133334z m185.173333 320.853334A1082.581333 1082.581333 0 0 0 673.621333 512a1082.154667 1082.154667 0 0 0-80.768-139.946667 1082.453333 1082.453333 0 0 0-161.578666 0A1082.368 1082.368 0 0 0 350.421333 512a1083.306667 1083.306667 0 0 0 80.810667 139.946667 1083.648 1083.648 0 0 0 161.578667 0z m54.826667-5.632c26.24-3.413333 51.2-7.765333 74.666666-12.928a875.178667 875.178667 0 0 0-26.112-71.125334 1175.296 1175.296 0 0 1-48.512 84.053334zM376.405333 377.642667c-26.24 3.413333-51.2 7.808-74.666666 12.970666 7.253333 22.869333 16 46.677333 26.154666 71.125334a1174.101333 1174.101333 0 0 1 48.512-84.053334z m-74.666666 255.744c23.466667 5.162667 48.426667 9.514667 74.666666 12.928a1174.528 1174.528 0 0 1-48.512-84.053334 875.093333 875.093333 0 0 0-26.154666 71.125334z m-41.728-10.453334c11.178667-35.584 25.6-72.874667 43.093333-110.933333a933.546667 933.546667 0 0 1-43.093333-110.933333c-95.616 27.136-156.885333 68.437333-156.885334 110.933333s61.269333 83.754667 156.885334 110.933333zM722.346667 390.613333c-23.466667-5.162667-48.469333-9.557333-74.666667-12.970666a1175.082667 1175.082667 0 0 1 48.512 84.053333c10.154667-24.405333 18.858667-48.213333 26.154667-71.082667z m41.685333 10.453334c-11.093333 35.584-25.6 72.874667-43.093333 110.933333 17.493333 38.058667 32 75.349333 43.093333 110.933333 95.658667-27.178667 156.928-68.437333 156.928-110.933333s-61.269333-83.754667-156.928-110.933333zM512 592.170667a80.213333 80.213333 0 1 1 0-160.341334 80.213333 80.213333 0 0 1 0 160.341334z" p-id="6252"></path></svg>