<svg width="774" height="479" viewBox="0 0 774 479" fill="none" xmlns="http://www.w3.org/2000/svg">
<path d="M93.2065 3C18.0764 302.842 -11.7936 378 24.2065 421C60.2065 464 274.206 345 299.206 304C324.206 263 202.679 227.805 145.206 310C87.7339 392.195 244.206 447 299.206 443C354.206 439 465.206 358 498.206 316C531.206 274 422.206 216 369.206 316C316.206 416 457.206 458 519.206 443C581.206 428 667.206 366 698.207 325C729.207 284 596.212 243.269 573.207 325C551.631 484.581 620.207 487 688.207 449C756.207 411 764.207 356 764.207 356" stroke="#3E3E3E" stroke-width="18"/>
</svg>
